<svg xmlns="http://www.w3.org/2000/svg" viewBox="0 0 139 40" xmlns:xlink="http://www.w3.org/1999/xlink"><defs><path id="a" d="M0 38.9317814h138.166806V0H0z"/></defs><g fill="none" fill-rule="evenodd"><path fill="#131D49" d="M58.9164463 19.5827717H53.563233V34.042684H49.2634V19.5827718h-5.2552306v-3.3062275h14.908277m5.1983138 11.140302h3.834348l-1.9230096-6.162306-1.9113384 6.162306zm4.863572 3.3070386h-5.8919817l-1.029224 3.318934h-4.5935092l6.541218-17.7664106h4.0422554l6.5908876 17.7664102H70.01977l-1.041438-3.3189345zm14.2794784-8.541822l2.9155918-5.905735h4.9124274l-4.9857108 8.809937 5.120335 8.9564726h-4.961283l-3.0013604-6.0160417-3.001089 6.0160417H75.307924l5.108121-8.9564724-4.973497-8.8099377h4.8996708"/><g transform="translate(.63 .187)"><path fill="#131D49" d="M100.60241 27.0956277c0-2.342666-.6856062-3.514134-2.057905-3.514134-.9798254 0-1.63449.350386-1.9599224 1.0498063v5.1973928c.3585456.7321338 1.020267 1.0982007 1.9846217 1.0982007 1.3144863 0 1.9919497-1.130103 2.0332057-3.3919315v-.4393343zm4.127753.2565712c0 2.049596-.463314 3.687164-1.390484 4.910541-.926356 1.224999-2.178144 1.836823-3.7545502 1.836823-1.2165037 0-2.2166858-.4431197-3.0005462-1.330169V38.9317h-4.12911V20.653229h3.85959l.122139 1.2198624c.7917316-.9762685 1.833441-1.4639972 3.123228-1.4639972 1.6339474 0 2.9036494.5996576 3.8101914 1.799243.906542 1.2001264 1.359542 2.8495902 1.359542 4.948662v.1951997z"/><mask id="b" fill="#fff"><use xlink:href="#a"/></mask><path fill="#131D49" d="M106.553181 33.85578h4.14051V15.1133717h-4.14051m11.413204 16.057981c.514341 0 .941284-.1100364 1.280287-.3295684.338732-.2198024.581382-.4671814.72822-.7448407V27.986787h-1.199947c-1.437711 0-2.156159.6423744-2.156159 1.9273935 0 .3739073.127024.6775212.379716.908949.253235.232239.575681.348223.967883.348223zm2.584731 2.6846707c-.147381-.268467-.277934-.6637328-.392202-1.184175-.759704.951936-1.820955 1.427769-3.185111 1.427769-1.249346 0-2.310597-.3760702-3.184569-1.1290217-.873972-.7521404-1.310958-1.6973175-1.310958-2.8363425 0-1.4320947.530626-2.5138035 1.59242-3.2459372 1.061795-.7321338 2.605359-1.0982007 4.630694-1.0982007h1.273502v-.6988796c0-1.2176996-.526283-1.8268197-1.579664-1.8268197-.979825 0-1.470281.482051-1.470281 1.4469645h-4.128295c0-1.2755566.545825-2.311845 1.635576-3.1077835 1.090293-.79702 2.480777-1.1944487 4.171179-1.1944487 1.690403 0 3.025789.4106762 4.005614 1.2320287.980097.8221635 1.482224 1.9484816 1.506923 3.3800356v5.8446337c.015742 1.2125628.203836 2.1396258.562925 2.7820002v.208177h-4.127753zm9.54247-13.2028214l.135167 1.5494307c.91387-1.1958004 2.176516-1.793295 3.784949-1.793295 1.380442 0 2.411294.4104057 3.093644 1.2317582.681535.822163 1.034652 2.0585172 1.059351 3.709874v8.504972h-4.140509v-8.334375c0-.666977-.135167-1.1565988-.404687-1.470216-.269249-.312806-.759704-.469885-1.47001-.469885-.808288 0-1.408126.3174022-1.800056.9519362v9.3225395h-4.128839v-13.20274h3.87099zM28.9899717 5.9687558v21.5965946c0 .721049-.5925095 1.3107034-1.3166576 1.3107034H6.357087c-.7236052 0-1.3153005-.5896543-1.3153005-1.3107034V24.143409l-5.035381-3.9534682V32.58728c0 .7207786.5854527 1.3109736 1.3096008 1.3109736h31.3997455c.7236053 0 1.3153005-.590195 1.3153005-1.3109737V1.31046c0-.7207787-.5686246-1.3079997-1.2922298-1.3079997l-3.7488507 5.9662955z" mask="url(#b)"/><path fill="#F06027" d="M32.7323354.0018384L22.6292752 4.9721292l-11.445774 15.4651095L5.0125 15.931696.0064324 18.5933862v1.5997177l11.0462442 8.682328h3.5471857L32.7450923.001838" mask="url(#b)"/><path fill="#F8961D" d="M22.6087016 4.9744543L11.1629276 20.439023l-6.1710013-4.505002-4.9919534 2.659257 12.285004 8.9678278L32.72859.000108" mask="url(#b)"/></g></g></svg>