<svg width="39" height="38" viewBox="0 0 39 38" xmlns="http://www.w3.org/2000/svg" xmlns:xlink="http://www.w3.org/1999/xlink"><title>Group 2</title><defs><path id="a" d="M.004 18.514h18.903V.092H.004v18.422z"/><path id="c" d="M0 .09v14.98h18.183V.09H0z"/></defs><g fill="none" fill-rule="evenodd"><path d="M19.49 2.077c-9.583 0-17.38 7.585-17.38 16.91 0 9.323 7.797 16.91 17.38 16.91 9.58 0 17.376-7.587 17.376-16.91 0-9.325-7.796-16.91-17.377-16.91m0 35.874C8.74 37.95 0 29.444 0 18.987 0 8.53 8.742.022 19.49.022c10.745 0 19.487 8.508 19.487 18.964 0 10.457-8.742 18.965-19.488 18.965" fill="#141D49"/><g transform="translate(10 8.056)"><mask id="b" fill="#fff"><use xlink:href="#a"/></mask><path d="M16.106 3.335v11.737c0 .392-.33.713-.73.713H3.53c-.402 0-.73-.32-.73-.713v-1.86L.003 11.064V17.8c0 .393.325.714.727.714h17.446c.402 0 .73-.32.73-.713V.804c0-.392-.315-.71-.717-.71l-2.084 3.242z" fill="#131D49" mask="url(#b)"/></g><path fill="#F06027" d="M28.185 8.148l-5.613 2.7-6.36 8.406-3.427-2.448-2.78 1.446v.87l6.136 4.718h1.97L28.193 8.148"/><g transform="translate(10 8.056)"><mask id="d" fill="#fff"><use xlink:href="#c"/></mask><path fill="#F8961D" mask="url(#d)" d="M12.56 2.794L6.203 11.2l-3.43-2.45L0 10.197l6.825 4.874L18.183.09"/></g></g></svg>